<svg width="480" height="320" viewBox="0 0 480 320" fill="none" xmlns="http://www.w3.org/2000/svg">
  <defs>
    <linearGradient id="grad" x1="0" y1="0" x2="1" y2="1">
      <stop offset="0%" stop-color="#2F7BFF" stop-opacity="0.7" />
      <stop offset="100%" stop-color="#0B0D10" stop-opacity="0" />
    </linearGradient>
  </defs>
  <rect width="480" height="320" rx="28" fill="#0B0D10" />
  <rect x="38" y="38" width="404" height="244" rx="22" fill="#11151C" />
  <path d="M240 88L320 118V176C320 214 287 246 240 260C193 246 160 214 160 176V118L240 88Z" fill="url(#grad)" />
  <path d="M240 108L296 130V172C296 198 272 222 240 232C208 222 184 198 184 172V130L240 108Z" stroke="#2F7BFF" stroke-opacity="0.5" stroke-width="2" />
  <path d="M240 132V192" stroke="#2F7BFF" stroke-opacity="0.6" stroke-width="3" stroke-linecap="round" />
  <circle cx="240" cy="208" r="6" fill="#2F7BFF" />
  <rect x="92" y="220" width="296" height="12" rx="6" fill="#1C2430" />
</svg>
