<svg width="480" height="320" viewBox="0 0 480 320" fill="none" xmlns="http://www.w3.org/2000/svg">
  <defs>
    <linearGradient id="grad" x1="0" y1="0" x2="1" y2="1">
      <stop offset="0%" stop-color="#2F7BFF" stop-opacity="0.85" />
      <stop offset="100%" stop-color="#0B0D10" stop-opacity="0" />
    </linearGradient>
  </defs>
  <rect width="480" height="320" rx="28" fill="#0B0D10" />
  <rect x="32" y="44" width="416" height="232" rx="20" fill="#11151C" />
  <path d="M72 220L160 170L240 188L320 120L408 90" stroke="#2F7BFF" stroke-width="3" fill="none" />
  <circle cx="160" cy="170" r="6" fill="#2F7BFF" />
  <circle cx="240" cy="188" r="6" fill="#2F7BFF" />
  <circle cx="320" cy="120" r="6" fill="#2F7BFF" />
  <circle cx="408" cy="90" r="6" fill="#2F7BFF" />
  <rect x="72" y="88" width="140" height="18" rx="9" fill="#1C2430" />
  <rect x="72" y="118" width="190" height="12" rx="6" fill="#1C2430" />
  <rect x="72" y="140" width="120" height="10" rx="5" fill="#1C2430" />
  <rect x="72" y="240" width="336" height="12" rx="6" fill="#1C2430" />
  <rect x="300" y="58" width="120" height="40" rx="14" fill="url(#grad)" />
</svg>
